<svg xmlns="http://www.w3.org/2000/svg" viewBox="0 0 128 128">
  <rect x="12" y="12" width="104" height="104" rx="16" fill="#F5E6C8" stroke="#000" stroke-width="6"/>
  <!-- Máscara -->
  <path d="M44 44c0-10 8-18 20-18s20 8 20 18v18c0 16-8 26-20 26S44 78 44 62V44Z" fill="#3B82F6" stroke="#000" stroke-width="6"/>
  <path d="M50 60c6-4 22-4 28 0" fill="none" stroke="#000" stroke-width="6" stroke-linecap="round"/>
  <path d="M56 52c-2 3-2 6 0 9" fill="none" stroke="#000" stroke-width="6" stroke-linecap="round"/>
  <path d="M72 52c2 3 2 6 0 9" fill="none" stroke="#000" stroke-width="6" stroke-linecap="round"/>
  <!-- Adaga -->
  <path d="M86 38 98 50l-6 6-12-12 6-6Z" fill="#F97316" stroke="#000" stroke-width="6" stroke-linejoin="round"/>
  <text x="64" y="108" text-anchor="middle" font-family="system-ui, -apple-system, Segoe UI, Roboto" font-size="18" font-weight="900" fill="#000">LAD</text>
</svg>