<svg xmlns="http://www.w3.org/2000/svg" viewBox="0 0 128 128">
  <rect x="12" y="12" width="104" height="104" rx="16" fill="#F5E6C8" stroke="#000" stroke-width="6"/>
  <!-- Frasco/boquilha -->
  <path d="M58 26h12l6 10v10c0 6-4 10-10 10H62c-6 0-10-4-10-10V36l6-10Z" fill="#EAB308" stroke="#000" stroke-width="6" stroke-linejoin="round"/>
  <path d="M48 52h32l-6 46c-2 12-8 20-10 20s-8-8-10-20l-6-46Z" fill="#F97316" stroke="#000" stroke-width="6" stroke-linejoin="round"/>
  <!-- Chama -->
  <path d="M64 60c10 14 12 22 0 34-12-12-10-20 0-34Z" fill="#22C55E" stroke="#000" stroke-width="4" stroke-linejoin="round"/>
  <!-- Faíscas -->
  <circle cx="50" cy="94" r="4" fill="#22C55E" stroke="#000" stroke-width="2"/>
  <circle cx="78" cy="88" r="3.5" fill="#22C55E" stroke="#000" stroke-width="2"/>
</svg>