<svg xmlns="http://www.w3.org/2000/svg" viewBox="0 0 128 128">
  <rect x="12" y="12" width="104" height="104" rx="16" fill="#F5E6C8" stroke="#000" stroke-width="6"/>
  <!-- Peitoral -->
  <path d="M44 34c12-12 28-12 40 0l6 24c2 28-8 44-26 50-18-6-28-22-26-50l6-24Z" fill="#22C55E" stroke="#000" stroke-width="6" stroke-linejoin="round"/>
  <!-- Malha (tecido metálico) -->
  <g>
    <path d="M52 46c10 4 14 10 12 18-2 8-10 12-20 12" fill="none" stroke="#111827" stroke-width="4" stroke-linecap="round" opacity="0.8"/>
    <path d="M76 46c-10 4-14 10-12 18 2 8 10 12 20 12" fill="none" stroke="#111827" stroke-width="4" stroke-linecap="round" opacity="0.8"/>
  </g>
  <g stroke="#111827" stroke-width="3" fill="none" opacity="0.7">
    <circle cx="58" cy="60" r="6"/><circle cx="70" cy="56" r="6"/><circle cx="62" cy="74" r="6"/><circle cx="76" cy="68" r="6"/>
    <circle cx="48" cy="72" r="6"/><circle cx="66" cy="66" r="6"/>
  </g>
</svg>