<svg xmlns="http://www.w3.org/2000/svg" viewBox="0 0 128 128">
  <rect x="12" y="12" width="104" height="104" rx="16" fill="#F5E6C8" stroke="#000" stroke-width="6"/>
  <!-- Cabo -->
  <path d="M54 28c-10 22-8 42 6 62 12 18 10 24 0 30" fill="none" stroke="#111827" stroke-width="10" stroke-linecap="round"/>
  <!-- Cabeça -->
  <path d="M68 44c20 8 26 20 18 34-10 18-30 18-44 6 4-16 10-28 26-40Z" fill="#EAB308" stroke="#000" stroke-width="6" stroke-linejoin="round"/>
  <!-- Estrela na ponta -->
  <path d="M78 62l6 12 13 1-10 8 3 13-12-7-12 7 3-13-10-8 13-1 6-12Z" fill="#22C55E" stroke="#000" stroke-width="4" stroke-linejoin="round"/>
</svg>