<svg xmlns="http://www.w3.org/2000/svg" viewBox="0 0 128 128">
  <rect x="12" y="12" width="104" height="104" rx="16" fill="#F5E6C8" stroke="#000" stroke-width="6"/>
  <!-- Casinha + conforto -->
  <path d="M40 56 64 36l24 20v40c0 8-6 14-14 14H54c-8 0-14-6-14-14V56Z" fill="#EAB308" stroke="#000" stroke-width="6" stroke-linejoin="round"/>
  <path d="M52 58h24" fill="none" stroke="#111827" stroke-width="6" stroke-linecap="round" opacity="0.5"/>
  <!-- Porta -->
  <path d="M56 92V72c0-4 2-8 8-8s8 4 8 8v20" fill="#22C55E" stroke="#000" stroke-width="6" stroke-linejoin="round"/>
  <!-- Estrela/agrado -->
  <path d="M64 62l5 10 10 1-8 7 2 10-9-5-9 5 2-10-8-7 10-1 5-10Z" fill="#F97316" stroke="#000" stroke-width="4" stroke-linejoin="round"/>
</svg>